<?xml version="1.0" encoding="UTF-8"?>
<!-- Created with Inkscape (http://www.inkscape.org/) -->
<svg width="300" height="300" version="1.1" viewBox="0 0 300 300" xmlns="http://www.w3.org/2000/svg" xmlns:cc="http://creativecommons.org/ns#" xmlns:dc="http://purl.org/dc/elements/1.1/" xmlns:rdf="http://www.w3.org/1999/02/22-rdf-syntax-ns#" xmlns:xlink="http://www.w3.org/1999/xlink">
 <defs>
  <linearGradient id="linearGradient4619" x1="106.54" x2="278.54" y1="204.82" y2="204.82" gradientUnits="userSpaceOnUse">
   <stop stop-color="#2a7fff" offset="0"/>
   <stop stop-color="#04a" offset="1"/>
  </linearGradient>
  <linearGradient id="linearGradient4627" x1="14.101" x2="174.1" y1="90.525" y2="90.525" gradientUnits="userSpaceOnUse">
   <stop stop-color="#0a0" offset="0"/>
   <stop stop-color="#052" offset="1"/>
  </linearGradient>
 </defs>
 <metadata>
  <rdf:RDF>
   <cc:Work rdf:about="">
    <dc:format>image/svg+xml</dc:format>
    <dc:type rdf:resource="http://purl.org/dc/dcmitype/StillImage"/>
    <dc:title/>
   </cc:Work>
  </rdf:RDF>
 </metadata>
 <rect y="-1.4648e-5" width="300" height="300" fill="none" stroke-width="1.5184"/>
 <path d="m95.131 10.525c-16.988-0.01343 0.24063 12.513-20.508 19.651-23.758 8.1732-14.361-15.844-33.497 0.43594-17.827 15.166 6.7933 9.979-3.4725 31.013-11.02 22.578-21.357-1.0488-23.377 23.994-1.8825 23.329 11.861 2.2537 19.475 24.385 8.1733 23.758-15.842 14.36 0.43827 33.497 15.166 17.827 9.9788-6.7939 31.013 3.4718 22.579 11.02-1.0492 21.357 23.994 23.378 23.329 1.8825 2.2532-11.86 24.385-19.474 23.758-8.1732 14.361 15.842 33.497-0.4379 17.827-15.166-6.7933-9.979 3.4725-31.013 11.02-22.578 21.355 1.0488 23.375-23.994 1.8825-23.329-11.859-2.2537-19.473-24.385-8.1733-23.758 15.842-14.36-0.43828-33.497-15.166-17.827-9.9788 6.7939-31.013-3.4718-22.579-11.02 1.0473-21.355-23.996-23.376-1.4581-0.11766-2.7425-0.17584-3.8751-0.17673zm-1.0312 49.933a31.16 30.068 0 0 1 31.157 30.068 31.16 30.068 0 0 1-31.157 30.068 31.16 30.068 0 0 1-31.161-30.068 31.16 30.068 0 0 1 31.161-30.068zm0 15.674c-8.2383 0-15.332 7.0714-15.332 14.394 0 7.3223 7.0937 14.394 15.332 14.394 8.2383 0 15.33-7.0715 15.33-14.394 0-7.3223-7.0917-14.394-15.33-14.394z" fill="url(#linearGradient4627)" fill-rule="evenodd" stroke-width=".80725">
      <animateTransform
        id="gear_1"
        attributeName="transform"
        type="rotate"
        from="0  93.5 90.5"
        to="90 93.5 90.5"
        begin="0s;gear_1.end"
        dur="0.5s"
        />
 </path>
 <path d="m211.34 118.82c-9.3368 0.46171 1.0048 17.756-18.567 18.471-27.197 0.99201-7.5479-23.735-33.224-14.621-21.9 7.7733 7.9609 14.065-9.2916 29.715-20.228 18.348-20.954-13.276-34.827 10.301-11.832 20.109 15.095 5.6107 11.859 28.74-3.7944 27.118-24.556 3.3958-20.135 30.404 3.7718 23.037 15.163-5.4684 27.458 14.319 14.415 23.2-16.667 18.479 3.9799 36.281 17.611 15.184 8.138-13.99 30.211-6.8037 25.88 8.4258-0.97891 24.915 26.233 25.181 23.209 0.22671-2.695-15.966 18.828-24.743 25.234-10.291 15.165 19.695 36.208 2.3002 17.948-14.836-12.268-10.47-1.3655-31.104 12.782-24.192 24.216 5.2583 29.244-21.658 4.2886-22.958-16.099-0.0775-20.919-22.913-5.6514-26.774 21.933-11.638 8.5941-35.481-11.378-20.336-12.398 10.353-30.685-3.9996-21.44-16.827 9.3913-23.088-16.074-32.703-3.3937-1.2813-5.7979-1.7731-7.527-1.6876zm-18.801 53.108a32.882 32.882 0 0 1 32.882 32.882 32.882 32.882 0 0 1-32.882 32.882 32.882 32.882 0 0 1-32.882-32.882 32.882 32.882 0 0 1 32.882-32.882z" fill="url(#linearGradient4619)" fill-rule="evenodd" stroke-width=".87848">
 
    <animateTransform
        id="gear_2"
        attributeName="transform"
        type="rotate"
        from="0  193 205"
        to="-85 193 205"
        begin="gear_1.begin"
        dur="0.5s"
        />
 </path>
</svg>
