<?xml version="1.0" encoding="UTF-8"?>
<!-- Created with Inkscape (http://www.inkscape.org/) -->
<svg width="300" height="300" version="1.1" viewBox="0 0 300 300" xmlns="http://www.w3.org/2000/svg" xmlns:cc="http://creativecommons.org/ns#" xmlns:dc="http://purl.org/dc/elements/1.1/" xmlns:rdf="http://www.w3.org/1999/02/22-rdf-syntax-ns#">
 <metadata>
  <rdf:RDF>
   <cc:Work rdf:about="">
    <dc:format>image/svg+xml</dc:format>
    <dc:type rdf:resource="http://purl.org/dc/dcmitype/StillImage"/>
    <dc:title/>
   </cc:Work>
  </rdf:RDF>
 </metadata>
 <g fill-rule="evenodd">
  <rect y="-1.4648e-5" width="300" height="300" fill="#045" stroke-width="1.5184"/>
  <path d="m100.84 19.04c-16.37-0.0127 0.23228 12.071-19.761 18.958-22.893 7.886-13.838-15.285-32.278 0.42251-17.178 14.632 6.5462 9.6286-3.3461 29.923-10.619 21.785-20.58-1.0118-22.527 23.151-1.8137 22.509 11.429 2.1741 18.766 23.528 7.8758 22.923-15.265 13.855 0.42232 32.32 14.613 17.201 9.6158-6.5553 29.884 3.3498 21.757 10.633-1.011 20.605 23.121 22.554 22.48 1.8161 2.1708-11.443 23.497-18.79 22.893-7.886 13.838 15.287 32.278-0.42063 17.178-14.632-6.5462-9.6286 3.3461-29.923 10.619-21.785 20.58 1.0099 22.527-23.153 1.8137-22.509-11.429-2.1722-18.766-23.526-7.8758-22.923 15.265-13.855-0.42232-32.32-14.613-17.201-9.6158 6.5534-29.884-3.3517-21.757-10.633 1.011-20.605-23.121-22.554-1.405-0.1135-2.6446-0.16778-3.736-0.16863zm-0.9918 48.178a30.025 29.011 0 0 1 30.025 29.01 30.025 29.011 0 0 1-30.025 29.012 30.025 29.011 0 0 1-30.025-29.012 30.025 29.011 0 0 1 30.025-29.01zm0 15.122c-7.9382 0-14.772 6.8229-14.772 13.888 0 7.0652 6.8337 13.888 14.772 13.888 7.9382 0 14.772-6.8229 14.772-13.888 0-7.0652-6.8337-13.888-14.772-13.888z" fill="#0a0" stroke-width=".77838">
     <animateTransform
  id="gear_1"
  attributeName="transform"
  type="rotate"
  from="0  99.7 95.3"
  to="90 99.7 95.3"
  begin="0s;gear_1.end"
  dur="0.5s"
  />
  </path>
  <path d="m215.02 124.39c-9.4 0.42497 1.0136 16.339-18.691 16.996-27.381 0.91318-7.5994-21.839-33.449-13.453-22.048 7.1526 8.0143 12.942-9.3555 27.342-20.365 16.883-21.096-12.218-35.062 9.4766-11.912 18.504 15.195 5.1646 11.938 26.447-3.8197 24.953-24.721 3.1229-20.27 27.975 3.7971 21.197 15.264-5.0295 27.643 13.178 14.513 21.347-16.779 17 4.0078 33.381 17.73 13.971 8.1934-12.87 30.416-6.2578 26.055 7.7528-0.98778 22.923 26.408 23.168 23.367 0.20894-2.7136-14.689 18.955-22.766 25.405-9.469 15.269 18.123 36.455 2.1172 18.07-13.651-12.351-9.635-1.375-28.621 12.868-22.26 24.381 4.8389 29.443-19.928 4.318-21.124-16.208-0.0718-21.061-21.084-5.6897-24.636 22.082-10.707 8.6523-32.646-11.454-18.713-12.482 9.5247-30.893-3.6816-21.586-15.484 9.4541-21.244-16.184-30.09-3.4167-1.1789-5.8374-1.6314-7.5781-1.5527zm-18.928 46.623a32.5 32.5 0 0 1 32.5 32.5 32.5 32.5 0 0 1-32.5 32.5 32.5 32.5 0 0 1-32.5-32.5 32.5 32.5 0 0 1 32.5-32.5z" fill="#f60" stroke-width=".84552">
       <animateTransform
  id="gear_2"
  attributeName="transform"
  type="rotate"
  from="0  193.8 204.6"
  to="-85 193.8 204.6"
  begin="gear_1.begin"
  dur="0.5s"
  />
  </path>
 </g>
</svg>
